<svg xmlns="http://www.w3.org/2000/svg" version="1.1" xmlns:xlink="http://www.w3.org/1999/xlink" xmlns:svgjs="http://svgjs.com/svgjs" width="1440" height="560" preserveAspectRatio="none" viewBox="0 0 1440 560"><g mask="url(&quot;#SvgjsMask2443&quot;)" fill="none"><rect width="1440" height="560" x="0" y="0" fill="url(#SvgjsLinearGradient2444)"></rect><path d="M1440 0L990.1 0L1440 89.92z" fill="rgba(255, 255, 255, .1)"></path><path d="M990.1 0L1440 89.92L1440 316.56L503.97 0z" fill="rgba(255, 255, 255, .075)"></path><path d="M503.97 0L1440 316.56L1440 461.99L428.26000000000005 0z" fill="rgba(255, 255, 255, .05)"></path><path d="M428.26 0L1440 461.99L1440 510.44L422.09 0z" fill="rgba(255, 255, 255, .025)"></path><path d="M0 560L406.95 560L0 431.12z" fill="rgba(0, 0, 0, .1)"></path><path d="M0 431.12L406.95 560L585.89 560L0 193.51z" fill="rgba(0, 0, 0, .075)"></path><path d="M0 193.51L585.89 560L901.4 560L0 178.47z" fill="rgba(0, 0, 0, .05)"></path><path d="M0 178.46999999999997L901.4 560L1066.29 560L0 160.62999999999997z" fill="rgba(0, 0, 0, .025)"></path></g><defs><mask id="SvgjsMask2443"><rect width="1440" height="560" fill="#ffffff"></rect></mask><linearGradient x1="15.28%" y1="-39.29%" x2="84.72%" y2="139.29%" gradientUnits="userSpaceOnUse" id="SvgjsLinearGradient2444"><stop stop-color="rgba(0, 0, 0, 0)" offset="0"></stop><stop stop-color="rgba(255, 227, 0, 0.72)" offset="1"></stop></linearGradient></defs></svg>