<svg xmlns="http://www.w3.org/2000/svg" version="1.1" xmlns:xlink="http://www.w3.org/1999/xlink" xmlns:svgjs="http://svgjs.com/svgjs" width="1440" height="200" preserveAspectRatio="none" viewBox="0 0 1440 200"><g mask="url(&quot;#SvgjsMask1190&quot;)" fill="none"><path d="M1464 200L0 200 L0 113.99Q57.95 51.94, 120 109.9Q135.45 53.36, 192 68.81Q240.25 45.06, 264 93.32Q304.89 14.22, 384 55.11Q426.58 25.7, 456 68.28Q501.34 41.62, 528 86.96Q565.16 4.12, 648 41.28Q701.5 22.78, 720 76.28Q795.56 31.84, 840 107.39Q878.08 25.47, 960 63.54Q989.1 20.64, 1032 49.74Q1108.42 6.16, 1152 82.59Q1221.04 31.63, 1272 100.67Q1281.44 38.12, 1344 47.56Q1414.75 -1.68, 1464 69.07z" fill="rgba(163, 151, 32, 0.18)"></path><path d="M1512 200L0 200 L0 143.36Q52.17 75.53, 120 127.7Q139.02 74.72, 192 93.74Q278.79 60.54, 312 147.33Q355.38 118.71, 384 162.09Q411.31 69.41, 504 96.72Q579.61 52.33, 624 127.94Q702.88 86.82, 744 165.7Q744.18 93.88, 816 94.05Q888.72 46.77, 936 119.49Q984.67 96.16, 1008 144.83Q1055.45 120.28, 1080 167.73Q1109.13 76.87, 1200 106Q1241.62 75.62, 1272 117.24Q1350.51 75.75, 1392 154.26Q1423.91 66.17, 1512 98.08z" fill="rgba(199, 198, 22, 0.22)"></path><path d="M1512 200L0 200 L0 147.68Q92.04 119.72, 120 211.76Q135.75 155.51, 192 171.26Q240.17 147.43, 264 195.6Q308.56 168.16, 336 212.73Q378.28 135, 456 177.28Q500.91 102.19, 576 147.11Q637.48 136.59, 648 198.07Q665.19 143.26, 720 160.45Q790.59 111.04, 840 181.63Q894.53 116.17, 960 170.7Q1015.58 154.27, 1032 209.85Q1080.29 138.14, 1152 186.43Q1193.29 107.72, 1272 149Q1338.97 95.97, 1392 162.95Q1460.87 111.81, 1512 180.68z" fill="rgba(255, 230, 0, 0.22)"></path></g><defs><mask id="SvgjsMask1190"><rect width="1440" height="200" fill="#ffffff"></rect></mask></defs></svg>