<svg xmlns="http://www.w3.org/2000/svg" version="1.1" xmlns:xlink="http://www.w3.org/1999/xlink" xmlns:svgjs="http://svgjs.com/svgjs" width="1440" height="560" preserveAspectRatio="none" viewBox="0 0 1440 560"><g mask="url(&quot;#SvgjsMask1018&quot;)" fill="none"><path d="M858.46 660.77C940.41 652.66 906.99 486.68 1132.58 478.09 1358.18 469.5 1535.76 290.37 1680.83 287.69" stroke="rgba(89, 95, 23, 0.58)" stroke-width="2"></path><path d="M409.59 647.55C600.14 628.95 700.5 236.28 1048.07 224.65 1395.64 213.02 1523.72 96.49 1686.55 95.85" stroke="rgba(89, 95, 23, 0.58)" stroke-width="2"></path><path d="M183.98 570.87C355.11 569.68 502.59 411.53 848.77 407.62 1194.96 403.71 1338.22 186.6 1513.57 183.62" stroke="rgba(89, 95, 23, 0.58)" stroke-width="2"></path><path d="M306.87 625.79C442.22 607.31 513.78 295.72 740.15 292.85 966.53 289.98 956.79 362.85 1173.44 362.85 1390.08 362.85 1496.99 293.07 1606.72 292.85" stroke="rgba(89, 95, 23, 0.58)" stroke-width="2"></path><path d="M525.65 606.16C634.99 601.72 722.03 421.85 922.52 421.55 1123.01 421.25 1120.96 491.55 1319.39 491.55 1517.83 491.55 1615.51 421.82 1716.26 421.55" stroke="rgba(89, 95, 23, 0.58)" stroke-width="2"></path></g><defs><mask id="SvgjsMask1018"><rect width="1440" height="560" fill="#ffffff"></rect></mask></defs></svg>