<svg xmlns="http://www.w3.org/2000/svg" version="1.1" xmlns:xlink="http://www.w3.org/1999/xlink" xmlns:svgjs="http://svgjs.com/svgjs" width="1440" height="1000" preserveAspectRatio="none" viewBox="0 0 1440 1000"><g mask="url(&quot;#SvgjsMask1049&quot;)" fill="none"><path d="M-199.72 523.55C-23.65 557.16 74.92 960.35 332.88 1003.55 590.84 1046.75 517.21 1188.94 599.18 1199.06" stroke="rgba(89, 95, 23, 0.58)" stroke-width="2"></path><path d="M-176.56 735.3C8.33 732.77 168.94 513.74 529.61 515.3 890.27 516.86 1018.95 1003.37 1235.77 1029.66" stroke="rgba(89, 95, 23, 0.58)" stroke-width="2"></path><path d="M-80.9 723.86C50.59 704.69 108.25 385.84 335.78 393.86 563.31 401.88 574.52 993.23 752.46 1091.05" stroke="rgba(89, 95, 23, 0.58)" stroke-width="2"></path><path d="M-108.36 806.89C85.17 775.88 179.62 302.71 495.52 306.89 811.43 311.07 856.82 1071.76 1099.41 1178.81" stroke="rgba(89, 95, 23, 0.58)" stroke-width="2"></path><path d="M-268.54 499.11C-127.43 492.43-50.3 231.2 238.22 249.11 526.74 267.02 532.94 947.28 744.98 1055.68" stroke="rgba(89, 95, 23, 0.58)" stroke-width="2"></path></g><defs><mask id="SvgjsMask1049"><rect width="1440" height="1000" fill="#ffffff"></rect></mask></defs></svg>