<svg xmlns="http://www.w3.org/2000/svg" version="1.1" xmlns:xlink="http://www.w3.org/1999/xlink" xmlns:svgjs="http://svgjs.com/svgjs" width="1440" height="1000" preserveAspectRatio="none" viewBox="0 0 1440 1000"><g mask="url(&quot;#SvgjsMask1053&quot;)" fill="none"><path d="M541.78 1133.38C746.05 1060.87 725.86 520 1080.39 453.92 1434.92 387.84 1467.46 182.12 1619 173.92" stroke="rgba(89, 95, 23, 0.58)" stroke-width="2"></path><path d="M150.01 1036.89C357.98 903.97 321.34 210.65 616.66 166.87 911.98 123.09 849.99 291.87 1083.31 291.87 1316.63 291.87 1429.19 167.95 1549.96 166.87" stroke="rgba(89, 95, 23, 0.58)" stroke-width="2"></path><path d="M362.82 1089.36C503.65 1066.82 574.63 727.78 802.34 725.67 1030.04 723.56 1022.1 850.67 1241.85 850.67 1461.61 850.67 1567.14 726.88 1681.37 725.67" stroke="rgba(89, 95, 23, 0.58)" stroke-width="2"></path><path d="M111.75 1186.7C289.35 1124.31 319.77 610.47 581.3 598.07 842.83 585.67 816.08 723.07 1050.85 723.07 1285.62 723.07 1398.93 599.13 1520.4 598.07" stroke="rgba(89, 95, 23, 0.58)" stroke-width="2"></path><path d="M668.11 1041.77C848.26 979.15 830.75 506.13 1145.68 446.84 1460.62 387.55 1487.57 195.08 1623.26 186.84" stroke="rgba(89, 95, 23, 0.58)" stroke-width="2"></path></g><defs><mask id="SvgjsMask1053"><rect width="1440" height="1000" fill="#ffffff"></rect></mask></defs></svg>