<?xml version="1.0" standalone="no"?>
<!DOCTYPE svg PUBLIC "-//W3C//DTD SVG 20010904//EN"
 "http://www.w3.org/TR/2001/REC-SVG-20010904/DTD/svg10.dtd">
<svg version="1.0" xmlns="http://www.w3.org/2000/svg"
 width="236.000000pt" height="236.000000pt" viewBox="0 0 236.000000 236.000000"
 preserveAspectRatio="xMidYMid meet">
<metadata>
Created by potrace 1.14, written by Peter Selinger 2001-2017
</metadata>
<g transform="translate(0.000000,236.000000) scale(0.100000,-0.100000)"
fill="#000000" stroke="none">
<path d="M491 1787 c-19 -6 -44 -25 -55 -40 -20 -28 -21 -39 -22 -437 l0 -409
25 13 c75 38 130 23 182 -47 19 -25 45 -51 58 -59 21 -11 25 -10 47 15 28 32
26 14 29 307 3 259 9 290 70 316 68 28 135 -5 155 -75 5 -20 10 -125 10 -233
0 -109 3 -198 8 -199 60 -6 93 -26 148 -93 45 -54 55 -61 83 -58 36 3 76 25
87 50 5 9 11 134 14 277 6 280 11 305 60 330 29 15 89 12 122 -6 35 -19 51
-76 53 -189 l2 -105 35 -37 c20 -20 43 -58 52 -84 20 -61 42 -84 77 -84 36 0
55 29 62 96 8 69 34 119 78 148 l37 25 -3 83 c-5 129 -13 189 -36 258 -34 104
-88 168 -182 218 -45 23 -64 27 -137 27 -76 0 -91 -3 -140 -30 -30 -16 -77
-52 -103 -78 l-49 -48 -21 28 c-72 92 -141 127 -258 127 -95 1 -124 -12 -203
-90 -22 -22 -37 -32 -34 -23 9 23 -17 75 -45 94 -33 21 -160 29 -206 12z"/>
<path d="M370 615 c0 -25 5 -45 10 -45 6 0 10 10 10 21 0 17 3 19 14 10 11 -9
16 -9 22 0 5 9 10 5 16 -12 8 -19 11 -21 17 -9 7 12 8 54 2 79 -1 3 -11 -5
-24 -17 -23 -21 -23 -21 -37 -2 -22 31 -30 24 -30 -25z"/>
<path d="M560 619 c-24 -46 -22 -56 8 -38 16 10 24 10 35 1 24 -20 27 -1 6 39
-11 22 -21 39 -24 39 -3 0 -14 -18 -25 -41z"/>
<path d="M713 636 c14 -21 14 -26 2 -36 -19 -16 -19 -30 -1 -30 8 0 17 8 21
18 6 16 7 16 20 -2 8 -10 19 -15 25 -11 8 5 7 12 -5 25 -14 15 -14 18 0 30 8
7 12 17 9 22 -3 5 -14 2 -24 -7 -15 -14 -18 -14 -30 0 -20 24 -34 17 -17 -9z"/>
<path d="M866 653 c-3 -3 -6 -24 -6 -45 0 -52 23 -46 25 6 1 37 -6 52 -19 39z"/>
<path d="M960 649 c0 -5 7 -9 15 -9 10 0 15 -11 15 -35 0 -19 5 -35 10 -35 6
0 10 16 10 35 0 24 5 35 15 35 8 0 15 4 15 9 0 6 -18 9 -40 9 -22 0 -40 -4
-40 -9z"/>
<path d="M1120 627 c0 -37 15 -57 42 -57 21 0 40 33 36 63 -4 29 -23 19 -23
-13 0 -30 -29 -35 -31 -5 -1 11 -2 26 -3 33 -2 28 -21 10 -21 -21z"/>
<path d="M1279 657 c0 -1 -2 -19 -3 -40 -2 -45 9 -57 29 -31 14 18 14 18 15 1
0 -28 25 -14 25 14 0 38 -11 54 -39 57 -14 1 -26 1 -27 -1z m41 -38 c0 -6 -4
-7 -10 -4 -5 3 -10 11 -10 16 0 6 5 7 10 4 6 -3 10 -11 10 -16z"/>
<path d="M1438 649 c-22 -12 -23 -52 -3 -69 16 -13 69 -5 60 9 -3 5 -14 7 -24
4 -10 -3 -22 0 -26 7 -8 13 13 42 26 34 5 -3 14 -2 20 2 8 4 7 9 -2 15 -18 11
-30 11 -51 -2z"/>
<path d="M1576 653 c-10 -10 -7 -83 3 -83 5 0 13 10 17 22 l7 22 18 -23 c15
-19 20 -20 25 -8 8 22 1 68 -11 67 -5 0 -10 -5 -10 -12 0 -6 -8 -12 -17 -14
-10 -1 -15 3 -12 11 6 14 -9 28 -20 18z"/>
<path d="M1729 640 c-1 -11 -2 -30 -2 -42 -1 -18 5 -24 27 -26 16 -2 33 1 39
7 8 8 3 11 -18 12 -18 1 -23 3 -12 6 19 5 17 30 -2 26 -6 -2 -11 2 -11 7 0 6
6 10 13 9 25 -3 38 1 32 11 -3 6 -19 10 -36 10 -22 0 -29 -5 -30 -20z"/>
<path d="M1870 650 c0 -5 7 -10 15 -10 10 0 15 -11 15 -35 0 -19 5 -35 10 -35
6 0 10 14 10 30 0 18 6 33 15 36 28 11 15 24 -25 24 -22 0 -40 -4 -40 -10z"/>
</g>
</svg>
